<mxfile host="app.diagrams.net" modified="2023-10-07T05:44:23.611Z" agent="Mozilla/5.0 (Windows NT 10.0; Win64; x64) AppleWebKit/537.36 (KHTML, like Gecko) Chrome/117.0.0.0 Safari/537.36" etag="Soka6zi-nFxzdcPKjlel" version="21.7.5" type="github">
  <diagram name="Página-1" id="zWKbjg2KhSwAlDV8SOMh">
    <mxGraphModel dx="882" dy="559" grid="1" gridSize="10" guides="1" tooltips="1" connect="1" arrows="1" fold="1" page="1" pageScale="1" pageWidth="850" pageHeight="1100" math="0" shadow="0">
      <root>
        <mxCell id="0" />
        <mxCell id="1" parent="0" />
        <mxCell id="-T1soDFNFwhT25YtIxrT-11" style="edgeStyle=orthogonalEdgeStyle;rounded=0;orthogonalLoop=1;jettySize=auto;html=1;exitX=0.5;exitY=1;exitDx=0;exitDy=0;exitPerimeter=0;entryX=0.5;entryY=0;entryDx=0;entryDy=0;entryPerimeter=0;" edge="1" parent="1" source="-T1soDFNFwhT25YtIxrT-1" target="-T1soDFNFwhT25YtIxrT-10">
          <mxGeometry relative="1" as="geometry" />
        </mxCell>
        <mxCell id="-T1soDFNFwhT25YtIxrT-1" value="&lt;font style=&quot;vertical-align: inherit;&quot;&gt;&lt;font style=&quot;vertical-align: inherit;&quot;&gt;Inicio&lt;/font&gt;&lt;/font&gt;" style="strokeWidth=2;html=1;shape=mxgraph.flowchart.start_1;whiteSpace=wrap;" vertex="1" parent="1">
          <mxGeometry x="40" y="50" width="100" height="60" as="geometry" />
        </mxCell>
        <mxCell id="-T1soDFNFwhT25YtIxrT-13" style="edgeStyle=orthogonalEdgeStyle;rounded=0;orthogonalLoop=1;jettySize=auto;html=1;exitX=1;exitY=0.5;exitDx=0;exitDy=0;entryX=0;entryY=0.5;entryDx=0;entryDy=0;entryPerimeter=0;" edge="1" parent="1" source="-T1soDFNFwhT25YtIxrT-3" target="-T1soDFNFwhT25YtIxrT-9">
          <mxGeometry relative="1" as="geometry" />
        </mxCell>
        <mxCell id="-T1soDFNFwhT25YtIxrT-3" value="&lt;div style=&quot;&quot;&gt;&lt;span style=&quot;background-color: initial;&quot;&gt;&lt;font style=&quot;vertical-align: inherit;&quot;&gt;&lt;font style=&quot;vertical-align: inherit;&quot;&gt;Solicitar al usuario la&lt;/font&gt;&lt;/font&gt;&lt;/span&gt;&lt;/div&gt;&lt;div style=&quot;&quot;&gt;&lt;span style=&quot;background-color: initial;&quot;&gt;&lt;font style=&quot;vertical-align: inherit;&quot;&gt;&lt;font style=&quot;vertical-align: inherit;&quot;&gt;&amp;nbsp;cantidad&lt;/font&gt;&lt;/font&gt;&lt;/span&gt;&lt;/div&gt;&lt;div style=&quot;&quot;&gt;&lt;span style=&quot;background-color: initial;&quot;&gt;&lt;font style=&quot;vertical-align: inherit;&quot;&gt;&lt;font style=&quot;vertical-align: inherit;&quot;&gt;&amp;nbsp;de dinero y&lt;/font&gt;&lt;/font&gt;&lt;/span&gt;&lt;/div&gt;&lt;font style=&quot;vertical-align: inherit;&quot;&gt;&lt;div style=&quot;&quot;&gt;&lt;span style=&quot;background-color: initial;&quot;&gt;&lt;font style=&quot;vertical-align: inherit;&quot;&gt;&lt;font style=&quot;vertical-align: inherit;&quot;&gt;&amp;nbsp;número de meses.&lt;/font&gt;&lt;/font&gt;&lt;/span&gt;&lt;/div&gt;&lt;/font&gt;" style="shape=parallelogram;html=1;strokeWidth=2;perimeter=parallelogramPerimeter;whiteSpace=wrap;rounded=1;arcSize=12;size=0.23;align=center;" vertex="1" parent="1">
          <mxGeometry x="220" y="190" width="190" height="90" as="geometry" />
        </mxCell>
        <mxCell id="-T1soDFNFwhT25YtIxrT-5" value="Calcular los intereses ganados por mes&amp;nbsp;" style="rounded=1;whiteSpace=wrap;html=1;absoluteArcSize=1;arcSize=14;strokeWidth=2;" vertex="1" parent="1">
          <mxGeometry x="500" y="340" width="110" height="100" as="geometry" />
        </mxCell>
        <mxCell id="-T1soDFNFwhT25YtIxrT-14" style="edgeStyle=orthogonalEdgeStyle;rounded=0;orthogonalLoop=1;jettySize=auto;html=1;exitX=0.5;exitY=1;exitDx=0;exitDy=0;exitPerimeter=0;entryX=0.5;entryY=0;entryDx=0;entryDy=0;" edge="1" parent="1" source="-T1soDFNFwhT25YtIxrT-9" target="-T1soDFNFwhT25YtIxrT-5">
          <mxGeometry relative="1" as="geometry" />
        </mxCell>
        <mxCell id="-T1soDFNFwhT25YtIxrT-9" value="Declara un vector para almacenar los intereses ganados por mes&amp;nbsp;" style="strokeWidth=2;html=1;shape=mxgraph.flowchart.stored_data;whiteSpace=wrap;" vertex="1" parent="1">
          <mxGeometry x="480" y="190" width="150" height="85" as="geometry" />
        </mxCell>
        <mxCell id="-T1soDFNFwhT25YtIxrT-12" style="edgeStyle=orthogonalEdgeStyle;rounded=0;orthogonalLoop=1;jettySize=auto;html=1;exitX=1;exitY=0.5;exitDx=0;exitDy=0;exitPerimeter=0;entryX=0;entryY=0.25;entryDx=0;entryDy=0;" edge="1" parent="1" source="-T1soDFNFwhT25YtIxrT-10" target="-T1soDFNFwhT25YtIxrT-3">
          <mxGeometry relative="1" as="geometry" />
        </mxCell>
        <mxCell id="-T1soDFNFwhT25YtIxrT-10" value="Variable interés&lt;br&gt;Variable capital&amp;nbsp;&lt;br&gt;variable meses&amp;nbsp;" style="strokeWidth=2;html=1;shape=mxgraph.flowchart.database;whiteSpace=wrap;" vertex="1" parent="1">
          <mxGeometry x="25" y="150" width="130" height="150" as="geometry" />
        </mxCell>
      </root>
    </mxGraphModel>
  </diagram>
</mxfile>
